<svg width="48" height="48" viewBox="0 0 48 48" fill="none" xmlns="http://www.w3.org/2000/svg">
<rect width="48" height="48" fill="#323238"/>
<path d="M17.4482 36.0001V19.8073H12.3035V36.0001H17.4482ZM14.8765 17.5951C16.6706 17.5951 17.7873 16.3517 17.7873 14.7978C17.7539 13.2089 16.6706 12 14.9106 12C13.1508 12 12 13.2089 12 14.7978C12 16.3517 13.1164 17.5951 14.843 17.5951H14.8764H14.8765ZM20.2958 36.0001H25.4405V26.9572C25.4405 26.4732 25.4739 25.9898 25.6097 25.6438C25.9817 24.6769 26.8282 23.6754 28.2493 23.6754C30.111 23.6754 30.8557 25.1603 30.8557 27.3371V35.9999H36.0001V26.7151C36.0001 21.7413 33.462 19.4271 30.0771 19.4271C27.3018 19.4271 26.0832 21.05 25.4062 22.1554H25.4406V19.8069H20.2959C20.3634 21.3264 20.2959 35.9997 20.2959 35.9997L20.2958 36.0001Z" fill="white"/>
</svg>
